<svg width="13" height="12" viewBox="0 0 13 12" fill="none" xmlns="http://www.w3.org/2000/svg">
<path d="M12.3981 5.36452L7.01407 0.458638C6.77775 0.243272 6.42138 0.243295 6.18515 0.458615L0.801126 5.36454C0.611821 5.53704 0.54929 5.80282 0.641774 6.04163C0.734282 6.28043 0.959516 6.43472 1.21562 6.43472H2.07554V11.35C2.07554 11.5449 2.23355 11.7029 2.42843 11.7029H5.37954C5.57442 11.7029 5.73244 11.545 5.73244 11.35V8.36562H7.46685V11.3501C7.46685 11.545 7.62487 11.703 7.81975 11.703H10.7707C10.9656 11.703 11.1236 11.545 11.1236 11.3501V6.43472H11.9837C12.2398 6.43472 12.465 6.28041 12.5575 6.04163C12.6499 5.8028 12.5874 5.53704 12.3981 5.36452Z" fill="white"/>
</svg>
