<svg width="16" height="16" viewBox="0 0 16 16" fill="none" xmlns="http://www.w3.org/2000/svg">
<g clip-path="url(#clip0_237_258)">
<path d="M7.59015 3.55401L7.18748 2.992C6.93353 2.63758 6.64833 2.33821 6.33775 2.09585L6.33772 2.09583C5.7276 1.61967 5.04281 1.38107 4.28995 1.37776C3.26948 1.37328 2.33603 1.7759 1.65218 2.51107L7.59015 3.55401ZM7.59015 3.55401L7.99777 2.99558M7.59015 3.55401L7.99777 2.99558M7.99777 2.99558C8.25493 2.64328 8.54264 2.34654 8.85523 2.10691C9.46965 1.63609 10.1565 1.40351 10.9094 1.40682C11.9298 1.4113 12.8596 1.82209 13.537 2.56327C14.2081 3.29769 14.5869 4.31189 14.582 5.43081C14.5771 6.55587 14.1599 7.60618 13.1948 8.76024L13.1948 8.76027C12.3159 9.8114 11.0445 10.8874 9.51651 12.1779L9.51647 12.1779L9.5029 12.1894C8.9883 12.6241 8.40346 13.1182 7.79638 13.6444L7.79612 13.6446C7.72701 13.7046 7.638 13.7378 7.54547 13.7374C7.45296 13.7369 7.36435 13.7031 7.29546 13.6422L7.29512 13.6419C6.68816 13.1065 6.10384 12.6041 5.59046 12.1626L5.58857 12.161L5.58855 12.161M7.99777 2.99558L5.58855 12.161M5.58855 12.161C4.07177 10.8569 2.80982 9.76967 1.94018 8.71096C0.985259 7.54832 0.577199 6.49438 0.582137 5.36947C0.587049 4.25045 0.974711 3.23962 1.65213 2.51112L5.58855 12.161Z" stroke="#EB5757"/>
</g>
<defs>
<clipPath id="clip0_237_258">
<rect width="15" height="15" fill="white" transform="translate(0.105469 0.0390625) rotate(0.251496)"/>
</clipPath>
</defs>
</svg>
