<svg width="29" height="28" viewBox="0 0 29 28" fill="none" xmlns="http://www.w3.org/2000/svg">
<g clip-path="url(#clip0_471_1258)">
<path d="M25.7111 24.72C26.3292 24.72 26.8648 24.5159 27.3202 24.1129L19.529 16.3214C19.3421 16.4553 19.1609 16.5855 18.9897 16.7092C18.4067 17.1388 17.9335 17.474 17.5701 17.7142C17.2068 17.955 16.7234 18.2004 16.1199 18.4509C15.5161 18.7017 14.9536 18.8268 14.4317 18.8268H14.4164H14.4012C13.8793 18.8268 13.3167 18.7018 12.713 18.4509C12.1092 18.2004 11.6258 17.955 11.2628 17.7142C10.8995 17.474 10.4265 17.1389 9.84315 16.7092C9.68059 16.59 9.5003 16.4593 9.30538 16.3193L1.5127 24.1129C1.96799 24.5159 2.50396 24.72 3.12207 24.72H25.7111Z" fill="#664EF9"/>
<path d="M2.2171 11.4153C1.63409 11.0267 1.11709 10.5815 0.666992 10.0801V21.9342L7.53412 15.0671C6.1603 14.108 4.39021 12.8921 2.2171 11.4153Z" fill="#664EF9"/>
<path d="M26.6325 11.4153C24.5423 12.8301 22.7658 14.048 21.3027 15.0698L28.1671 21.9345V10.0801C27.727 10.5714 27.2155 11.0163 26.6325 11.4153Z" fill="#664EF9"/>
<path d="M25.7111 3.11328H3.12219C2.33413 3.11328 1.72826 3.3794 1.30382 3.91108C0.879036 4.44301 0.666992 5.10825 0.666992 5.90604C0.666992 6.55046 0.948385 7.2487 1.51092 8.00097C2.07346 8.75293 2.67204 9.34358 3.30638 9.7732C3.65412 10.0189 4.70281 10.7479 6.45243 11.9601C7.39691 12.6146 8.21828 13.1851 8.92411 13.6774C9.52574 14.0966 10.0446 14.4596 10.473 14.7608C10.5221 14.7953 10.5995 14.8507 10.7021 14.9241C10.8127 15.0035 10.9527 15.1043 11.1253 15.229C11.4578 15.4694 11.734 15.6638 11.954 15.8123C12.1737 15.9608 12.4398 16.1267 12.7521 16.311C13.0641 16.4949 13.3583 16.6333 13.6345 16.7253C13.9108 16.8173 14.1665 16.8634 14.4018 16.8634H14.4171H14.4323C14.6676 16.8634 14.9233 16.8173 15.1996 16.7253C15.4758 16.6333 15.7698 16.4952 16.0821 16.311C16.394 16.1267 16.6598 15.9605 16.8802 15.8123C17.1002 15.6638 17.3764 15.4695 17.7089 15.229C17.8812 15.1043 18.0212 15.0034 18.1317 14.9243C18.2344 14.8506 18.3117 14.7956 18.3612 14.7608C18.6949 14.5286 19.215 14.1671 19.9142 13.6816C21.1864 12.7976 23.0601 11.4966 25.5431 9.7732C26.2899 9.25161 26.9138 8.62217 27.4152 7.88578C27.9158 7.1494 28.1667 6.37696 28.1667 5.56873C28.1667 4.89346 27.9234 4.31564 27.4378 3.83439C26.9517 3.35373 26.3761 3.11328 25.7111 3.11328Z" fill="#664EF9"/>
</g>
<defs>
<clipPath id="clip0_471_1258">
<rect width="27.5" height="27.5" fill="white" transform="translate(0.666992 0.166504)"/>
</clipPath>
</defs>
</svg>
