<svg width="9" height="10" viewBox="0 0 9 10" fill="none" xmlns="http://www.w3.org/2000/svg">
<path d="M7.33796 1.74419C6.6054 0.627907 5.3961 0 4.03564 0C2.6868 0 1.4775 0.627907 0.721683 1.74419C-0.0341305 2.83721 -0.208549 4.23256 0.256567 5.45349C0.384474 5.77907 0.582148 6.11628 0.837962 6.4186L3.77982 9.88372C3.84959 9.95349 3.91936 10 4.02401 10C4.12866 10 4.19843 9.95349 4.2682 9.88372L7.22168 6.4186C7.4775 6.11628 7.6868 5.7907 7.80308 5.45349C8.2682 4.23256 8.09378 2.83721 7.33796 1.74419ZM4.03564 5.86047C3.03564 5.86047 2.21006 5.03488 2.21006 4.03488C2.21006 3.03488 3.03564 2.2093 4.03564 2.2093C5.03564 2.2093 5.86122 3.03488 5.86122 4.03488C5.86122 5.03488 5.04727 5.86047 4.03564 5.86047Z" fill="#8291A3"/>
</svg>
