<svg width="55" height="55" viewBox="0 0 55 55" fill="none" xmlns="http://www.w3.org/2000/svg">
<g clip-path="url(#clip0_90_638)">
<rect x="26.9421" y="2.63281" width="25.4375" height="11.5" fill="#B8C4FF"/>
<path d="M49.3835 0.508301H30.2937C27.6768 0.508301 25.5476 2.63745 25.5476 5.25439V11.5825C25.5476 14.1995 27.6768 16.3286 30.2937 16.3286H38.2039V19.5981H30.2937C27.6768 19.5981 25.5476 21.7269 25.5476 24.3438V30.672C25.5476 33.2893 27.6768 35.418 30.2937 35.418H38.2039V38.6876H30.2937C27.6768 38.6876 25.5476 40.8167 25.5476 43.4337V49.7618C25.5476 52.3787 27.6768 54.5079 30.2937 54.5079H49.3835C52.0005 54.5079 54.1296 52.3787 54.1296 49.7618V43.4337C54.1296 40.8167 52.0005 38.6876 49.3835 38.6876H41.3679V35.418H49.3835C52.0005 35.418 54.1296 33.2893 54.1296 30.672V24.3438C54.1296 21.7269 52.0005 19.5981 49.3835 19.5981H41.3679V16.3286H49.3835C52.0005 16.3286 54.1296 14.1995 54.1296 11.5825V5.25439C54.1296 2.63745 52.0005 0.508301 49.3835 0.508301ZM50.9656 43.4337V49.7618C50.9656 50.6344 50.2557 51.3438 49.3835 51.3438H30.2937C29.4211 51.3438 28.7117 50.6344 28.7117 49.7618V43.4337C28.7117 42.5615 29.4211 41.8516 30.2937 41.8516H49.3835C50.2557 41.8516 50.9656 42.5615 50.9656 43.4337ZM50.9656 24.3438V30.672C50.9656 31.5445 50.2557 32.254 49.3835 32.254H30.2937C29.4211 32.254 28.7117 31.5445 28.7117 30.672V24.3438C28.7117 23.4716 29.4211 22.7622 30.2937 22.7622H49.3835C50.2557 22.7622 50.9656 23.4716 50.9656 24.3438ZM50.9656 11.5825C50.9656 12.4547 50.2557 13.1646 49.3835 13.1646H30.2937C29.4211 13.1646 28.7117 12.4547 28.7117 11.5825V5.25439C28.7117 4.38181 29.4211 3.67236 30.2937 3.67236H49.3835C50.2557 3.67236 50.9656 4.38181 50.9656 5.25439V11.5825Z" fill="url(#paint0_linear_90_638)"/>
<path d="M8.14526 48.1797C9.01909 48.1797 9.72729 47.4715 9.72729 46.5977C9.72729 45.7242 9.01909 45.0156 8.14526 45.0156C5.51555 45.0156 3.2937 42.8424 3.2937 40.2695C3.2937 39.3961 2.58549 38.6875 1.71167 38.6875C0.837845 38.6875 0.129639 39.3961 0.129639 40.2695C0.129639 44.642 3.77202 48.1797 8.14526 48.1797Z" fill="#FEC100"/>
<path d="M1.71167 35.418C2.58549 35.418 3.2937 34.7098 3.2937 33.8359V27.5078C3.2937 26.6344 2.58549 25.9258 1.71167 25.9258C0.837845 25.9258 0.129639 26.6344 0.129639 27.5078V33.8359C0.129639 34.7098 0.837845 35.418 1.71167 35.418Z" fill="#FEC100"/>
<path d="M1.71167 22.7621C2.58549 22.7621 3.2937 22.0535 3.2937 21.1801V14.7465C3.2937 12.1737 5.51555 10.0004 8.14526 10.0004H15.5763L10.4318 13.4298C9.70464 13.9147 9.50812 14.8969 9.99303 15.6236C10.48 16.3545 11.4634 16.5448 12.1869 16.0624L21.679 9.73469C22.119 9.44094 22.3835 8.94697 22.3835 8.41798C22.3835 7.88898 22.119 7.39501 21.679 7.10168L12.1869 0.773551C11.4597 0.289054 10.4775 0.485572 9.99303 1.21232C9.50812 1.93948 9.70464 2.92165 10.4318 3.40615L15.5763 6.83594H8.14526C3.77284 6.83594 0.129639 10.3729 0.129639 14.7461L0.129639 21.1797C0.129639 22.0535 0.837845 22.7621 1.71167 22.7621Z" fill="#FEC100"/>
<path d="M14.4734 45.0156C13.5996 45.0156 12.8914 45.7242 12.8914 46.5977C12.8914 47.4715 13.5996 48.1797 14.4734 48.1797H20.8015C21.6753 48.1797 22.3835 47.4715 22.3835 46.5977C22.3835 45.7242 21.6753 45.0156 20.8015 45.0156H14.4734Z" fill="#FEC100"/>
<path d="M46.2195 6.83643H33.4578C32.5839 6.83643 31.8757 7.54463 31.8757 8.41846C31.8757 9.29187 32.5839 10.0005 33.4578 10.0005H46.2195C47.0929 10.0005 47.8015 9.29187 47.8015 8.41846C47.8015 7.54463 47.0929 6.83643 46.2195 6.83643Z" fill="url(#paint1_linear_90_638)"/>
<path d="M31.8757 27.5078C31.8757 28.3816 32.5839 29.0898 33.4578 29.0898H46.2195C47.0929 29.0898 47.8015 28.3816 47.8015 27.5078C47.8015 26.6344 47.0929 25.9258 46.2195 25.9258H33.4578C32.5839 25.9258 31.8757 26.6344 31.8757 27.5078Z" fill="url(#paint2_linear_90_638)"/>
<path d="M31.8757 46.5977C31.8757 47.4715 32.5839 48.1797 33.4578 48.1797H46.2195C47.0929 48.1797 47.8015 47.4715 47.8015 46.5977C47.8015 45.7242 47.0929 45.0156 46.2195 45.0156H33.4578C32.5839 45.0156 31.8757 45.7238 31.8757 46.5977Z" fill="url(#paint3_linear_90_638)"/>
</g>
<defs>
<linearGradient id="paint0_linear_90_638" x1="25.5476" y1="27.5081" x2="52.5563" y2="27.5081" gradientUnits="userSpaceOnUse">
<stop stop-color="#9D94FF"/>
<stop offset="1" stop-color="#6B50E9"/>
</linearGradient>
<linearGradient id="paint1_linear_90_638" x1="31.8757" y1="8.41846" x2="46.9249" y2="8.41846" gradientUnits="userSpaceOnUse">
<stop stop-color="#9D94FF"/>
<stop offset="1" stop-color="#6B50E9"/>
</linearGradient>
<linearGradient id="paint2_linear_90_638" x1="31.8757" y1="27.5078" x2="46.9249" y2="27.5078" gradientUnits="userSpaceOnUse">
<stop stop-color="#9D94FF"/>
<stop offset="1" stop-color="#6B50E9"/>
</linearGradient>
<linearGradient id="paint3_linear_90_638" x1="31.8757" y1="46.5977" x2="46.9249" y2="46.5977" gradientUnits="userSpaceOnUse">
<stop stop-color="#9D94FF"/>
<stop offset="1" stop-color="#6B50E9"/>
</linearGradient>
<clipPath id="clip0_90_638">
<rect width="54" height="54" fill="white" transform="translate(0.129639 0.507812)"/>
</clipPath>
</defs>
</svg>
