<svg width="15" height="15" viewBox="0 0 15 15" fill="none" xmlns="http://www.w3.org/2000/svg">
<path d="M10.2272 0L4.77265 0C3.83174 0 3.06812 0.763626 3.06812 1.70454V13.2955C3.06812 14.2364 3.83174 15 4.77265 15H10.2272C11.1681 15 11.9317 14.2364 11.9317 13.2955V1.70454C11.9317 0.763626 11.1681 0 10.2272 0ZM7.49995 14.3182C6.93403 14.3182 6.47722 13.8614 6.47722 13.2955C6.47722 12.7295 6.93403 12.2727 7.49995 12.2727C8.06587 12.2727 8.52267 12.7295 8.52267 13.2955C8.52267 13.8614 8.06584 14.3182 7.49995 14.3182ZM10.5681 11.5909H4.43176V2.04546H10.5681V11.5909Z" fill="white"/>
</svg>
