<svg width="29" height="28" viewBox="0 0 29 28" fill="none" xmlns="http://www.w3.org/2000/svg">
<g clip-path="url(#clip0_471_1250)">
<path d="M19.5 0.250488H9.49998C7.77498 0.250488 6.375 1.65047 6.375 3.37547V24.6255C6.375 26.3505 7.77498 27.7505 9.49998 27.7505H19.5C21.225 27.7505 22.625 26.3505 22.625 24.6255V3.37547C22.625 1.65047 21.225 0.250488 19.5 0.250488ZM14.5 26.5005C13.4625 26.5005 12.625 25.663 12.625 24.6255C12.625 23.588 13.4625 22.7505 14.5 22.7505C15.5375 22.7505 16.375 23.588 16.375 24.6255C16.375 25.663 15.5375 26.5005 14.5 26.5005ZM20.125 21.5005H8.87502V4.00049H20.125V21.5005Z" fill="#664EF9"/>
</g>
<defs>
<clipPath id="clip0_471_1250">
<rect width="27.5" height="27.5" fill="white" transform="translate(0.75 0.250488)"/>
</clipPath>
</defs>
</svg>
