<svg width="15" height="16" viewBox="0 0 15 16" fill="none" xmlns="http://www.w3.org/2000/svg">
<g clip-path="url(#clip0_305_2034)">
<g opacity="0.6">
<path d="M7.32377 6.74139H11.4812C11.5828 6.74139 11.6651 6.65952 11.6651 6.55807V4.37278C11.6651 4.27148 11.5831 4.18945 11.4812 4.18945H7.32377C7.22248 4.18945 7.14014 4.27133 7.14014 4.37278V6.55822C7.14014 6.65952 7.22232 6.74139 7.32377 6.74139Z" fill="#7A7F86"/>
<path d="M7.32377 3.07081H9.67312C9.77442 3.07081 9.85676 2.98862 9.85676 2.88717V0.70219C9.85676 0.600585 9.77473 0.518555 9.67312 0.518555H7.32377C7.22248 0.518555 7.14014 0.600429 7.14014 0.70219V2.88717C7.14014 2.98862 7.22232 3.07081 7.32377 3.07081Z" fill="#7A7F86"/>
<path d="M7.32377 11.1105H13.069C13.1701 11.1105 13.2525 11.0287 13.2525 10.9272V8.74223C13.2525 8.64093 13.1704 8.55859 13.069 8.55859H7.32377C7.22248 8.55859 7.14014 8.64078 7.14014 8.74223V10.9272C7.14014 11.0285 7.22232 11.1105 7.32377 11.1105Z" fill="#7A7F86"/>
<path d="M14.6563 12.9297H7.32377C7.22248 12.9297 7.14014 13.0114 7.14014 13.1135V15.2981C7.14014 15.3994 7.22232 15.4818 7.32377 15.4818H14.6565C14.7577 15.4818 14.8399 15.3996 14.8399 15.2981V13.1132C14.8398 13.0114 14.7579 12.9297 14.6563 12.9297Z" fill="#7A7F86"/>
<path d="M6.08742 10.6908H4.84283V0.81072C4.84283 0.639047 4.70363 0.5 4.53211 0.5H2.02615C1.85464 0.5 1.71543 0.639047 1.71543 0.81072V10.6908H0.471C0.351218 10.6908 0.24231 10.7597 0.190731 10.8676C0.138996 10.9755 0.153755 11.1033 0.228639 11.1965L3.03692 15.3841C3.09596 15.4577 3.18498 15.5 3.27913 15.5C3.37328 15.5 3.46215 15.4577 3.52118 15.3841L6.32947 11.1965C6.40435 11.1032 6.41927 10.9755 6.36753 10.8676C6.31595 10.7598 6.2072 10.6908 6.08742 10.6908Z" fill="#7A7F86"/>
</g>
</g>
<defs>
<clipPath id="clip0_305_2034">
<rect width="15" height="15" fill="white" transform="translate(0 0.5)"/>
</clipPath>
</defs>
</svg>
