<svg width="66" height="66" viewBox="0 0 66 66" fill="none" xmlns="http://www.w3.org/2000/svg">
<g clip-path="url(#clip0_90_618)">
<path d="M48.922 39.9636L57.4843 31.491C60.6822 28.2931 66.8326 32.3277 63.5098 36.2368L53.1419 48.4347C52.736 48.912 52.2696 49.3353 51.7551 49.6931C50.0838 50.7612 48.0933 51.1171 46.132 51.1171H30.7462C29.6335 51.1171 28.5213 51.1815 27.416 51.3099L22.9909 51.807L13.8125 42.9003C13.8125 42.9003 19.0192 33.0677 29.233 35.8939C31.1432 36.4227 33.1198 36.6745 35.1019 36.6745H45.2136C49.9738 36.6745 50.0114 44.238 45.1739 44.238H36.3713" fill="white"/>
<path d="M16.962 63.3973L25.6937 54.439C25.6962 54.4366 25.6962 54.4326 25.6937 54.4301L10.8774 40.052C10.8749 40.0495 10.871 40.05 10.8685 40.052L2.05444 49.2026L16.962 63.3973Z" fill="#FFD54F" fill-opacity="0.4"/>
<path d="M12.5318 13.3267C9.76411 13.5889 7.59863 15.9194 7.59863 18.756V24.5629C7.59863 25.5656 8.41149 26.379 9.41468 26.379H21.8673C22.8704 26.379 23.6833 25.5656 23.6833 24.5629V18.756C23.6833 15.9174 21.5149 13.5849 18.7437 13.3262" fill="#FFD54F"/>
<path d="M21.7345 8.06563C21.7345 11.4311 19.0065 14.1591 15.6411 14.1591C12.2756 14.1591 9.54761 11.4311 9.54761 8.06563C9.54761 4.7002 12.2756 1.97168 15.6411 1.97168C19.0065 1.97168 21.7345 4.7002 21.7345 8.06563Z" fill="white"/>
<path d="M28.617 13.3267C25.8493 13.5889 23.6833 15.9194 23.6833 18.756V24.5629C23.6833 25.5656 24.4967 26.379 25.4999 26.379H37.9525C38.9556 26.379 39.7685 25.5656 39.7685 24.5629V18.756C39.7685 15.9174 37.5996 13.5849 34.8289 13.3262" fill="url(#paint0_linear_90_618)"/>
<path d="M37.8197 8.06563C37.8197 11.4311 35.0917 14.1591 31.7263 14.1591C28.3608 14.1591 25.6323 11.4311 25.6323 8.06563C25.6323 4.7002 28.3608 1.97168 31.7263 1.97168C35.0917 1.97168 37.8197 4.7002 37.8197 8.06563Z" fill="white"/>
<path d="M44.7022 13.3267C41.934 13.5889 39.7686 15.9194 39.7686 18.756V24.5629C39.7686 25.5656 40.5819 26.379 41.5846 26.379H54.0372C55.0404 26.379 55.8537 25.5656 55.8537 24.5629V18.756C55.8537 15.9174 53.6848 13.5849 50.9136 13.3262" fill="#FFD54F"/>
<path d="M53.9047 8.06563C53.9047 11.4311 51.1762 14.1591 47.8107 14.1591C44.4453 14.1591 41.7173 11.4311 41.7173 8.06563C41.7173 4.7002 44.4453 1.97168 47.8107 1.97168C51.1762 1.97168 53.9047 4.7002 53.9047 8.06563Z" fill="white"/>
<path d="M64.2068 30.5506C63.2343 29.6534 61.9115 29.0993 60.5772 29.0299C59.062 28.9516 57.6425 29.4919 56.5853 30.5496L49.3617 37.6973C49.219 37.4499 49.0559 37.2165 48.873 36.9999C47.9843 35.9447 46.6848 35.3638 45.2142 35.3638H35.102C33.1953 35.3638 31.3351 35.1164 29.5736 34.6292C24.981 33.3589 20.5935 34.2867 16.8846 37.3141C15.3764 38.5453 14.276 39.8845 13.5802 40.861L11.7671 39.1014C11.5287 38.87 11.2055 38.7386 10.8729 38.7386C10.87 38.7386 10.8675 38.7386 10.8645 38.7386C10.52 38.7411 10.187 38.8843 9.94808 39.1322L1.13403 48.2823C0.898099 48.5271 0.769727 48.8562 0.777161 49.1962C0.784596 49.5367 0.926846 49.8599 1.17318 50.0943L16.0807 64.2891C16.328 64.5245 16.6452 64.642 16.9619 64.642C17.2945 64.642 17.6271 64.5126 17.8774 64.2559L26.6092 55.2976C26.8476 55.0528 26.9799 54.7182 26.9735 54.3762C26.967 54.0392 26.8258 53.714 26.5839 53.4791L25.8236 52.7416L27.5638 52.5458C28.6165 52.4234 29.6871 52.3614 30.7468 52.3614H46.1321C48.6322 52.3614 50.7555 51.8147 52.4437 50.7362C52.4575 50.7273 52.4714 50.7179 52.4853 50.7084C53.09 50.2881 53.6387 49.79 54.1155 49.2284L64.4834 37.0311C66.2578 34.944 66.1468 32.3393 64.2068 30.5506ZM16.9287 61.5675L3.86651 49.1298L10.9032 41.8245L23.8891 54.4263L16.9287 61.5675ZM62.536 35.3757L52.1681 47.5735C51.839 47.9606 51.4618 48.3046 51.0459 48.596C49.7786 49.3985 48.1256 49.8059 46.1321 49.8059H30.7463C29.589 49.8059 28.4188 49.8738 27.2733 50.0071L23.448 50.4363L15.4383 42.6636C15.9949 41.8384 17.0184 40.5046 18.5009 39.2942C21.5828 36.7783 25.0791 36.0374 28.8921 37.0926C30.8757 37.6413 32.9648 37.9198 35.102 37.9198H45.2142C47.0302 37.9198 47.515 39.493 47.515 40.4223C47.515 41.1014 47.2969 41.7477 46.9167 42.1957C46.5043 42.681 45.918 42.9268 45.174 42.9268H36.3714C35.6656 42.9268 35.0936 43.4993 35.0936 44.2051C35.0936 44.9109 35.6656 45.4829 36.3714 45.4829H45.174C46.66 45.4829 47.9705 44.903 48.8646 43.8502C49.6086 42.9749 50.0328 41.824 50.0685 40.5938L58.3879 32.3616C59.577 31.1726 61.4347 31.471 62.474 32.4296C63.0113 32.9252 63.734 33.9665 62.536 35.3757Z" fill="url(#paint1_linear_90_618)"/>
<path d="M32.3859 43.8649C32.2248 43.1775 31.5373 42.7517 30.8498 42.9123C30.1629 43.0734 29.7361 43.7608 29.8977 44.4483L29.9096 44.5003C30.0479 45.0892 30.5728 45.4867 31.1527 45.4867C31.2493 45.4867 31.3475 45.4758 31.4456 45.453C32.1331 45.2919 32.5593 44.6039 32.3982 43.917L32.3859 43.8649Z" fill="url(#paint2_linear_90_618)"/>
<path d="M9.41462 27.6237H21.8672C22.5452 27.6237 23.1727 27.4037 23.6832 27.0319C24.1938 27.4037 24.8212 27.6237 25.4993 27.6237H37.9524C38.6304 27.6237 39.2579 27.4037 39.7684 27.0319C40.2789 27.4037 40.9064 27.6237 41.5844 27.6237H54.037C55.743 27.6237 57.1308 26.2354 57.1308 24.5294V18.7224C57.1308 16.1144 55.6712 13.8488 53.4864 12.7311C54.5451 11.4543 55.1825 9.81669 55.1825 8.03237C55.1825 3.96759 51.8755 0.660645 47.8107 0.660645C43.746 0.660645 40.439 3.96759 40.439 8.03237C40.439 9.81669 41.0764 11.4548 42.1351 12.7311C41.1909 13.2148 40.3825 13.9132 39.7684 14.7603C39.1543 13.9127 38.3459 13.2143 37.4012 12.7311C38.4599 11.4548 39.0973 9.81669 39.0973 8.03237C39.0973 3.96759 35.7904 0.660645 31.7256 0.660645C27.6608 0.660645 24.3539 3.96759 24.3539 8.03237C24.3539 9.81669 24.9917 11.4548 26.0504 12.7316C25.1057 13.2148 24.2973 13.9132 23.6832 14.7607C23.0691 13.9132 22.2607 13.2148 21.316 12.7311C22.3747 11.4548 23.0121 9.81669 23.0121 8.03287C23.0121 3.96759 19.7052 0.660645 15.6404 0.660645C11.5761 0.660645 8.26919 3.96759 8.26919 8.03287C8.26919 9.81669 8.90659 11.4548 9.96528 12.7316C7.78048 13.8493 6.32031 16.1153 6.32031 18.7229V24.5294C6.32031 26.2354 7.70861 27.6237 9.41462 27.6237ZM47.8112 3.21669C50.4664 3.21669 52.6269 5.37671 52.6269 8.03237C52.6269 10.6875 50.4664 12.8481 47.8112 12.8481C45.1556 12.8481 42.9956 10.688 42.9956 8.03237C42.9951 5.37671 45.1556 3.21669 47.8112 3.21669ZM44.4909 14.6111C45.4896 15.1171 46.6172 15.4041 47.8107 15.4041C49.0047 15.4041 50.1323 15.1171 51.1306 14.6111C53.1166 14.957 54.5753 16.6685 54.5753 18.7224V24.5294C54.5753 24.8263 54.3339 25.0677 54.037 25.0677H41.5844C41.2881 25.0677 41.0467 24.8263 41.0467 24.5294V18.7224C41.0462 16.669 42.5054 14.957 44.4909 14.6111ZM31.7261 3.21669C34.3812 3.21669 36.5418 5.37671 36.5418 8.03237C36.5418 10.6875 34.3812 12.8481 31.7261 12.8481C29.0704 12.8481 26.9104 10.688 26.9104 8.03237C26.9104 5.37671 29.0704 3.21669 31.7261 3.21669ZM28.4062 14.6111C29.4045 15.1171 30.5321 15.4041 31.7261 15.4041C32.9201 15.4041 34.0472 15.1171 35.0459 14.6111C37.0315 14.957 38.4906 16.6685 38.4906 18.7224V24.5294C38.4906 24.8263 38.2493 25.0677 37.9524 25.0677H25.4998C25.2029 25.0677 24.9615 24.8263 24.9615 24.5294V18.7224C24.9615 16.669 26.4207 14.957 28.4062 14.6111ZM15.6409 3.21669C18.2961 3.21669 20.4566 5.37671 20.4566 8.03237C20.4566 10.6875 18.2961 12.8481 15.6409 12.8481C12.9857 12.8481 10.8252 10.6875 10.8252 8.03237C10.8252 5.37671 12.9857 3.21669 15.6409 3.21669ZM8.87635 18.7224C8.87635 16.669 10.3355 14.957 12.3211 14.6111C13.3198 15.1171 14.4469 15.4041 15.6409 15.4041C16.8349 15.4041 17.962 15.1171 18.9607 14.6111C20.9468 14.957 22.4055 16.6685 22.4055 18.7224V24.5294C22.4055 24.8263 22.1641 25.0677 21.8672 25.0677H9.41462C9.11773 25.0677 8.87635 24.8263 8.87635 24.5294V18.7224Z" fill="url(#paint3_linear_90_618)"/>
</g>
<defs>
<linearGradient id="paint0_linear_90_618" x1="23.6833" y1="13.9788" x2="41.5018" y2="20.2995" gradientUnits="userSpaceOnUse">
<stop stop-color="#FFD54F"/>
<stop offset="1" stop-color="#FEC100"/>
</linearGradient>
<linearGradient id="paint1_linear_90_618" x1="0.776856" y1="46.8322" x2="62.1657" y2="46.8322" gradientUnits="userSpaceOnUse">
<stop stop-color="#9D94FF"/>
<stop offset="1" stop-color="#6B50E9"/>
</linearGradient>
<linearGradient id="paint2_linear_90_618" x1="29.8635" y1="44.1825" x2="32.2909" y2="44.1825" gradientUnits="userSpaceOnUse">
<stop stop-color="#9D94FF"/>
<stop offset="1" stop-color="#6B50E9"/>
</linearGradient>
<linearGradient id="paint3_linear_90_618" x1="6.32031" y1="14.1422" x2="54.3339" y2="14.1422" gradientUnits="userSpaceOnUse">
<stop stop-color="#9D94FF"/>
<stop offset="1" stop-color="#6B50E9"/>
</linearGradient>
<clipPath id="clip0_90_618">
<rect width="64.9651" height="64.9651" fill="white" transform="translate(0.776611 0.15332)"/>
</clipPath>
</defs>
</svg>
