<svg width="18" height="18" viewBox="0 0 18 18" fill="none" xmlns="http://www.w3.org/2000/svg">
<path d="M14.0557 3.98774C13.4072 3.33453 12.6354 2.81666 11.7851 2.4642C10.9348 2.11174 10.023 1.93173 9.10251 1.9346C5.24438 1.9346 2.10418 5.0748 2.10418 8.93558C2.10418 10.1692 2.42738 11.3755 3.03935 12.4352L2.0459 16.0637L5.75744 15.0897C6.78353 15.6486 7.93319 15.9419 9.10163 15.9427H9.10428C12.9624 15.9427 16.1053 12.8025 16.1053 8.94176C16.1076 8.02164 15.9276 7.11017 15.5757 6.26001C15.2237 5.40985 14.7068 4.63786 14.0548 3.98862L14.0557 3.98774ZM9.10428 14.7612C8.06151 14.7614 7.03789 14.4811 6.1407 13.9497L5.92788 13.8225L3.7255 14.3991L4.31362 12.2524L4.17586 12.0316C3.59106 11.1051 3.28201 10.0312 3.28485 8.93558C3.28672 7.39206 3.90089 5.91232 4.99258 4.82113C6.08427 3.72994 7.56428 3.11644 9.10781 3.11527C10.6611 3.11527 12.1244 3.72282 13.222 4.82048C13.7637 5.3602 14.1931 6.00191 14.4853 6.70853C14.7775 7.41516 14.9268 8.17269 14.9246 8.93735C14.9219 12.1491 12.3116 14.7603 9.10428 14.7603V14.7612ZM12.2948 10.4015C12.1208 10.3132 11.2599 9.89106 11.1 9.83278C10.9402 9.7745 10.8236 9.74447 10.7053 9.92109C10.5896 10.0951 10.2532 10.4898 10.1507 10.6081C10.0483 10.7238 9.94673 10.7406 9.77276 10.6523C9.5988 10.564 9.03275 10.3794 8.36515 9.78333C7.8459 9.31972 7.49356 8.74572 7.39112 8.57176C7.28869 8.39779 7.37964 8.30154 7.46883 8.21588C7.54919 8.13817 7.6428 8.01189 7.73111 7.90946C7.81941 7.80702 7.84679 7.73549 7.90507 7.61716C7.96335 7.50148 7.93509 7.39904 7.89094 7.31073C7.84679 7.22243 7.49621 6.36143 7.35315 6.01086C7.21274 5.66822 7.06615 5.71591 6.95842 5.70973C6.85598 5.70443 6.7403 5.70443 6.62462 5.70443C6.50894 5.70443 6.31819 5.74858 6.15836 5.92255C5.99852 6.09651 5.54551 6.52127 5.54551 7.38226C5.54551 8.24326 6.1716 9.07422 6.25991 9.19256C6.34822 9.30824 7.49356 11.077 9.24822 11.8338C9.66503 12.0131 9.99088 12.1208 10.2443 12.2038C10.6638 12.3363 11.0444 12.3169 11.3455 12.2727C11.682 12.2233 12.3805 11.8506 12.5271 11.4417C12.6736 11.0329 12.6736 10.6832 12.6295 10.6108C12.588 10.5331 12.4723 10.4898 12.2957 10.4006L12.2948 10.4015Z" fill="white"/>
</svg>
