<svg width="15" height="16" viewBox="0 0 15 16" fill="none" xmlns="http://www.w3.org/2000/svg">
<path d="M6.91036 0.969943C5.73553 0.985811 3.20766 1.17867 1.79359 2.47434C0.743875 3.51795 0.377084 5.05652 0.334363 6.96188C0.297745 8.85992 0.255024 12.4241 3.69102 13.3951V14.872C3.69102 14.872 3.66783 15.464 4.05842 15.5861C4.54056 15.7386 4.8152 15.2815 5.27292 14.7933L6.12735 13.829C8.47701 14.0243 10.2774 13.5733 10.4849 13.5062C10.9609 13.3536 13.6469 13.0112 14.0863 9.44642C14.5379 5.76569 13.8666 3.44655 12.6582 2.39683L12.6521 2.39561C12.2859 2.05994 10.8212 0.991914 7.54386 0.979708C7.54386 0.979708 7.30218 0.96445 6.91036 0.969943ZM6.95125 2.00562C7.28387 2.00379 7.48832 2.01783 7.48832 2.01783C10.2591 2.02393 11.5841 2.86005 11.8953 3.14079C12.9145 4.01291 13.4381 6.10441 13.0549 9.17789C12.6887 12.1562 10.5099 12.3454 10.1071 12.4735C9.93624 12.5284 8.34945 12.919 6.35255 12.7909C6.35255 12.7909 4.86402 14.5858 4.40019 15.0496C4.32696 15.1289 4.24151 15.1534 4.18659 15.1411C4.10725 15.1228 4.08284 15.0252 4.08894 14.8909L4.10114 12.4381C1.1894 11.6325 1.36028 8.592 1.3908 7.00522C1.42741 5.41843 1.72646 4.11727 2.6114 3.23843C3.80576 2.1582 5.9528 2.01173 6.95064 2.00562H6.95125ZM7.17096 3.59241C7.14695 3.59233 7.12315 3.59699 7.10094 3.60612C7.07873 3.61526 7.05854 3.62869 7.04153 3.64564C7.02452 3.66259 7.01103 3.68274 7.00182 3.70492C6.99261 3.7271 6.98787 3.75087 6.98787 3.77489C6.98787 3.82345 7.00716 3.87002 7.0415 3.90435C7.07583 3.93869 7.1224 3.95798 7.17096 3.95798C7.62469 3.94932 8.07564 4.03062 8.49778 4.19717C8.91992 4.36372 9.30489 4.61223 9.63048 4.92836C10.2957 5.57528 10.6198 6.44191 10.632 7.57707C10.632 7.60111 10.6367 7.62492 10.6459 7.64714C10.6551 7.66935 10.6686 7.68953 10.6856 7.70653C10.7026 7.72354 10.7228 7.73702 10.745 7.74622C10.7672 7.75542 10.791 7.76016 10.8151 7.76016V7.75467C10.8636 7.75467 10.9102 7.73538 10.9445 7.70104C10.9789 7.6667 10.9982 7.62014 10.9982 7.57158C11.0208 7.03774 10.9345 6.50487 10.7446 6.00544C10.5547 5.50601 10.2651 5.05046 9.89352 4.66654C9.16726 3.95859 8.25059 3.59241 7.17035 3.59241H7.17096ZM4.75783 4.01352C4.62804 3.99502 4.49581 4.02082 4.38249 4.08675H4.37517C4.12495 4.23323 3.89425 4.41632 3.67454 4.66044C3.50976 4.85573 3.41761 5.05042 3.3932 5.23961C3.37883 5.35057 3.38926 5.46334 3.42371 5.56979L3.43592 5.57589C3.62403 6.12891 3.86949 6.66074 4.16828 7.16267C4.55558 7.86563 5.03143 8.51603 5.58418 9.09794L5.60249 9.12235L5.6269 9.14066L5.64521 9.15897L5.66352 9.17728C6.24771 9.73143 6.89984 10.2092 7.60428 10.5993C8.40987 11.0387 8.89934 11.2462 9.19228 11.3316V11.3377C9.27772 11.3622 9.35584 11.3744 9.43518 11.3744C9.68524 11.3561 9.92199 11.2547 10.1077 11.0863C10.3458 10.8727 10.5349 10.6359 10.6753 10.3857V10.3796C10.8157 10.1171 10.7669 9.86631 10.5655 9.69543C10.1596 9.34035 9.72012 9.02558 9.25331 8.75556C8.94206 8.58468 8.6247 8.68843 8.49654 8.85931L8.2219 9.20658C8.08153 9.37746 7.82521 9.35305 7.82521 9.35305L7.81788 9.35915C5.91374 8.87091 5.40719 6.94297 5.40719 6.94297C5.40719 6.94297 5.38278 6.68054 5.55977 6.54627L5.90153 6.27163C6.06632 6.13737 6.18227 5.82001 6.00529 5.50876C5.73562 5.04171 5.42083 4.60223 5.06542 4.19661C4.98811 4.10073 4.87897 4.03576 4.75783 4.01352ZM7.48771 4.55669C7.43915 4.55685 7.39264 4.57629 7.35842 4.61074C7.3242 4.64519 7.30507 4.69183 7.30523 4.74039C7.30539 4.78895 7.32484 4.83545 7.35929 4.86967C7.39374 4.90389 7.44037 4.92303 7.48893 4.92287C8.09969 4.93347 8.68131 5.18587 9.10623 5.62471C9.29794 5.83619 9.44531 6.08395 9.53965 6.35334C9.63399 6.62274 9.67339 6.90831 9.6555 7.19319C9.65566 7.24164 9.67502 7.28806 9.70934 7.32226C9.74366 7.35646 9.79014 7.37567 9.83859 7.37567L9.84469 7.38299C9.86879 7.38299 9.89265 7.37824 9.9149 7.369C9.93715 7.35976 9.95736 7.34622 9.97437 7.32915C9.99138 7.31209 10.0049 7.29183 10.014 7.26955C10.0232 7.24726 10.0279 7.22339 10.0278 7.19929C10.0461 6.47303 9.82028 5.86273 9.37476 5.37449C8.92924 4.88625 8.30673 4.61161 7.51334 4.55669C7.50481 4.55609 7.49624 4.55609 7.48771 4.55669ZM7.78676 5.54476C7.76227 5.54404 7.73788 5.54815 7.71499 5.55686C7.69209 5.56556 7.67113 5.57869 7.65331 5.59549C7.63549 5.61229 7.62115 5.63244 7.61111 5.65479C7.60107 5.67713 7.59554 5.70123 7.59482 5.72572C7.59409 5.7502 7.5982 5.77459 7.60691 5.79749C7.61561 5.82038 7.62874 5.84134 7.64554 5.85917C7.66234 5.87699 7.68249 5.89133 7.70484 5.90136C7.72718 5.9114 7.75129 5.91694 7.77577 5.91766C8.37997 5.94817 8.67291 6.25332 8.70953 6.88194C8.71112 6.92943 8.7311 6.97445 8.76527 7.00747C8.79943 7.0405 8.8451 7.05895 8.89262 7.05892H8.89873C8.92331 7.05816 8.9475 7.05245 8.96983 7.04213C8.99216 7.03181 9.01218 7.0171 9.0287 6.99887C9.04522 6.98064 9.0579 6.95927 9.06598 6.93603C9.07405 6.9128 9.07736 6.88817 9.07571 6.86363C9.03299 6.04582 8.58747 5.58749 7.79408 5.54476C7.79164 5.54472 7.7892 5.54472 7.78676 5.54476Z" fill="white"/>
</svg>
